# xmcd
# Track frame offsets:
# 150
# 13337
# 26719
# 44016
# 55896
# 68029
# 87316
# 103741
# 118615
# 135517
# 156400
# 169130
# 183832
# 199504
#
# Disc length: 2917 seconds
# Revision: 2
# Processed by: cddbd v1.5.1PL0 Copyright (c) Steve Scherf et al.
# Submitted via: VisiTrax 2.9.9.209 - For more info visit www.synapsa.com
#
DISCID=c20b630e
DTITLE=Various Artist - Mr Music Country 02-04
DYEAR=2004
DGENRE=
TTITLE0=Jody Jenkins - Prisoner Of The Honky Tonk
TTITLE1=Gary Josey - Honky Tonk Mind
TTITLE2=Ben McPeak - Youre Out Of My Hands
TTITLE3=Keith Norris - On My Way To Texas
TTITLE4=David St. Romain - Hard Hard World
TTITLE5=Karin Tobin - Gettin Used To Lonely
TTITLE6=Paul Mateki - Sedona
TTITLE7=John Rich - One Bud Wiser
TTITLE8=Billy Yates - Down At The Station
TTITLE9=Carolina Åkerlund and Janne Lindgren - If Im Not Already Crazy
TTITLE10=Owen Temple - Lost Highway
TTITLE11=Jackson Taylor Band - Going Back To California
TTITLE12=Leona Williams - Dont Leave The Leaving Up To Me
TTITLE13=Fowler, Boland and Blaker - I Think Ill Stay Here And Drink
EXTD=
EXTT0=
EXTT1=
EXTT2=
EXTT3=
EXTT4=
EXTT5=
EXTT6=
EXTT7=
EXTT8=
EXTT9=
EXTT10=
EXTT11=
EXTT12=
EXTT13=
PLAYORDER=
